<svg xmlns="http://www.w3.org/2000/svg" width="200" height="200" fill="none">
  <path fill="#fff" d="M0 0h200v200H0z"/>
  <circle cx="73.28" cy="96.92" r="10.5" fill="#282a3a"/>
  <path fill="#282a3a" d="M60.55 63q9.8 0 17.84 5.05a37 37 0 0 1 12.87 13.58q4.83 8.53 4.83 18.9 0 3.55-.58 6.89H83.28q.87-3.3.87-6.88 0-6.97-3.2-12.8a25 25 0 0 0-8.46-9.31 21.4 21.4 0 0 0-11.94-3.49q-6.68 0-12.02 3.56a25 25 0 0 0-8.46 9.31 26.5 26.5 0 0 0-3.13 12.73q0 7.11 3.2 12.93a25 25 0 0 0 8.6 9.18 22 22 0 0 0 11.8 3.34q6.7 0 12.02-3.49a25 25 0 0 0 5.97-5.47l7.98 9q-.42.48-.87.95-4.84 5.13-11.3 8.04a33 33 0 0 1-13.8 2.91 33 33 0 0 1-17.9-5.05 38 38 0 0 1-12.88-13.5A38 38 0 0 1 25 100.54a38 38 0 0 1 2.77-14.58 38 38 0 0 1 7.61-11.94 36 36 0 0 1 11.37-8.1A33 33 0 0 1 60.55 63"/>
  <circle cx="152.19" cy="96.92" r="10.5" fill="#282a3a"/>
  <path fill="#282a3a" d="M139.45 63q9.82 0 17.85 5.05 8.1 5.04 12.86 13.58 4.84 8.53 4.84 18.9 0 3.55-.58 6.89h-12.23q.87-3.3.87-6.88 0-6.97-3.2-12.8a25 25 0 0 0-8.46-9.31 21.4 21.4 0 0 0-11.95-3.49q-6.68 0-12.01 3.56a25 25 0 0 0-8.46 9.31 26.5 26.5 0 0 0-3.13 12.73q0 7.1 3.2 12.93 3.2 5.76 8.6 9.17a22 22 0 0 0 11.8 3.35q6.69 0 12.02-3.49a25 25 0 0 0 5.97-5.47l7.98 9q-.42.48-.87.95a35 35 0 0 1-11.3 8.03 33 33 0 0 1-13.8 2.92 33 33 0 0 1-17.91-5.05 38 38 0 0 1-12.87-13.5 38 38 0 0 1-4.76-18.84q0-7.83 2.77-14.58a38 38 0 0 1 7.6-11.94 36 36 0 0 1 11.38-8.1 33 33 0 0 1 13.8-2.92"/>
</svg>
